<svg width="25" height="25" viewBox="0 0 25 25" fill="none" xmlns="http://www.w3.org/2000/svg">
<g clip-path="url(#clip0_6025_2299)">
<path d="M0.014267 8.38542C0.014267 5.41932 0.014267 3.93627 0.600655 2.80743C1.0948 1.85616 1.87043 1.08053 2.82169 0.586388C3.95054 0 5.43359 0 8.39968 0L16.6288 0C19.5949 0 21.078 0 22.2068 0.586388C23.1581 1.08053 23.9337 1.85616 24.4279 2.80743C25.0143 3.93627 25.0143 5.41932 25.0143 8.38542V16.6146C25.0143 19.5807 25.0143 21.0637 24.4279 22.1926C23.9337 23.1438 23.1581 23.9195 22.2068 24.4136C21.078 25 19.5949 25 16.6288 25H8.39968C5.43359 25 3.95054 25 2.82169 24.4136C1.87043 23.9195 1.0948 23.1438 0.600655 22.1926C0.014267 21.0637 0.014267 19.5807 0.014267 16.6146L0.014267 8.38542Z" fill="url(#paint0_radial_6025_2299)"/>
<path d="M0.014267 8.38542C0.014267 5.41932 0.014267 3.93627 0.600655 2.80743C1.0948 1.85616 1.87043 1.08053 2.82169 0.586388C3.95054 0 5.43359 0 8.39968 0L16.6288 0C19.5949 0 21.078 0 22.2068 0.586388C23.1581 1.08053 23.9337 1.85616 24.4279 2.80743C25.0143 3.93627 25.0143 5.41932 25.0143 8.38542V16.6146C25.0143 19.5807 25.0143 21.0637 24.4279 22.1926C23.9337 23.1438 23.1581 23.9195 22.2068 24.4136C21.078 25 19.5949 25 16.6288 25H8.39968C5.43359 25 3.95054 25 2.82169 24.4136C1.87043 23.9195 1.0948 23.1438 0.600655 22.1926C0.014267 21.0637 0.014267 19.5807 0.014267 16.6146L0.014267 8.38542Z" fill="url(#paint1_radial_6025_2299)"/>
<path d="M12.5004 3.40918C10.0315 3.40918 9.72167 3.41998 8.752 3.4641C7.78423 3.50842 7.12364 3.66164 6.54563 3.88645C5.94773 4.11865 5.44055 4.42926 4.93526 4.93475C4.42959 5.44005 4.119 5.94725 3.88605 6.54497C3.66068 7.12319 3.50727 7.78399 3.46371 8.75141C3.42034 9.72111 3.40898 10.0311 3.40898 12.5001C3.40898 14.969 3.41997 15.2779 3.4639 16.2476C3.50841 17.2154 3.66163 17.876 3.88624 18.4541C4.11862 19.052 4.42922 19.5592 4.93469 20.0645C5.43979 20.5702 5.94697 20.8815 6.54449 21.1137C7.12288 21.3385 7.78366 21.4918 8.75124 21.5361C9.72091 21.5802 10.0306 21.591 12.4992 21.591C14.9683 21.591 15.2772 21.5802 16.2469 21.5361C17.2146 21.4918 17.876 21.3385 18.4544 21.1137C19.0521 20.8815 19.5585 20.5702 20.0636 20.0645C20.5693 19.5592 20.8799 19.052 21.1128 18.4543C21.3363 17.876 21.4897 17.2152 21.5351 16.2478C21.5787 15.2781 21.5901 14.969 21.5901 12.5001C21.5901 10.0311 21.5787 9.7213 21.5351 8.7516C21.4897 7.7838 21.3363 7.12319 21.1128 6.54516C20.8799 5.94725 20.5693 5.44005 20.0636 4.93475C19.5579 4.42907 19.0523 4.11846 18.4538 3.88645C17.8743 3.66164 17.2133 3.50842 16.2455 3.4641C15.2759 3.41998 14.9672 3.40918 12.4975 3.40918H12.5004ZM11.6849 5.04744C11.9269 5.04706 12.197 5.04744 12.5004 5.04744C14.9276 5.04744 15.2153 5.05615 16.1737 5.09971C17.0601 5.14024 17.5411 5.28835 17.8616 5.41278C18.2858 5.57755 18.5883 5.77452 18.9062 6.0927C19.2244 6.41088 19.4214 6.71391 19.5865 7.13816C19.7109 7.45823 19.8592 7.93929 19.8996 8.82566C19.9431 9.78399 19.9526 10.0719 19.9526 12.498C19.9526 14.9241 19.9431 15.212 19.8996 16.1704C19.8591 17.0567 19.7109 17.5378 19.5865 17.8579C19.4218 18.2821 19.2244 18.5842 18.9062 18.9022C18.5881 19.2204 18.286 19.4173 17.8616 19.5821C17.5415 19.7071 17.0601 19.8548 16.1737 19.8954C15.2154 19.9389 14.9276 19.9484 12.5004 19.9484C10.073 19.9484 9.7853 19.9389 8.827 19.8954C7.94066 19.8544 7.45962 19.7063 7.13898 19.5819C6.71475 19.4171 6.41173 19.2202 6.09356 18.902C5.77539 18.5838 5.57842 18.2815 5.41328 17.8571C5.28885 17.537 5.14056 17.056 5.10022 16.1696C5.05666 15.2113 5.04795 14.9234 5.04795 12.4957C5.04795 10.0681 5.05666 9.78172 5.10022 8.82338C5.14075 7.93702 5.28885 7.45596 5.41328 7.1355C5.57804 6.71126 5.77539 6.40823 6.09356 6.09005C6.41173 5.77187 6.71475 5.5749 7.13898 5.40975C7.45943 5.28475 7.94066 5.13702 8.827 5.0963C9.66561 5.05842 9.9906 5.04706 11.6849 5.04516V5.04744ZM17.3529 6.55691C16.7506 6.55691 16.262 7.04497 16.262 7.64744C16.262 8.24971 16.7506 8.73835 17.3529 8.73835C17.9551 8.73835 18.4438 8.24971 18.4438 7.64744C18.4438 7.04516 17.9551 6.55653 17.3529 6.55653V6.55691ZM12.5004 7.83153C9.92223 7.83153 7.83195 9.92187 7.83195 12.5001C7.83195 15.0783 9.92223 17.1677 12.5004 17.1677C15.0785 17.1677 17.168 15.0783 17.168 12.5001C17.168 9.92187 15.0783 7.83153 12.5002 7.83153H12.5004ZM12.5004 9.46979C14.1738 9.46979 15.5306 10.8264 15.5306 12.5001C15.5306 14.1736 14.1738 15.5304 12.5004 15.5304C10.8267 15.5304 9.47016 14.1736 9.47016 12.5001C9.47016 10.8264 10.8267 9.46979 12.5004 9.46979Z" fill="white"/>
</g>
<defs>
<radialGradient id="paint0_radial_6025_2299" cx="0" cy="0" r="1" gradientUnits="userSpaceOnUse" gradientTransform="translate(6.65492 26.9255) rotate(-90) scale(24.7768 23.0444)">
<stop stop-color="#FFDD55"/>
<stop offset="0.1" stop-color="#FFDD55"/>
<stop offset="0.5" stop-color="#FF543E"/>
<stop offset="1" stop-color="#C837AB"/>
</radialGradient>
<radialGradient id="paint1_radial_6025_2299" cx="0" cy="0" r="1" gradientUnits="userSpaceOnUse" gradientTransform="translate(-4.17337 1.80096) rotate(78.6806) scale(11.0754 45.6531)">
<stop stop-color="#3771C8"/>
<stop offset="0.128" stop-color="#3771C8"/>
<stop offset="1" stop-color="#6600FF" stop-opacity="0"/>
</radialGradient>
<clipPath id="clip0_6025_2299">
<rect width="25" height="25" fill="white"/>
</clipPath>
</defs>
</svg>
