<svg width="25" height="25" viewBox="0 0 25 25" fill="none" xmlns="http://www.w3.org/2000/svg">
<path d="M0 8.38542C0 5.41932 0 3.93627 0.586388 2.80743C1.08053 1.85616 1.85616 1.08053 2.80743 0.586388C3.93627 0 5.41932 0 8.38542 0L16.6146 0C19.5807 0 21.0637 0 22.1926 0.586388C23.1438 1.08053 23.9195 1.85616 24.4136 2.80743C25 3.93627 25 5.41932 25 8.38542V16.6146C25 19.5807 25 21.0637 24.4136 22.1926C23.9195 23.1438 23.1438 23.9195 22.1926 24.4136C21.0637 25 19.5807 25 16.6146 25H8.38542C5.41932 25 3.93627 25 2.80743 24.4136C1.85616 23.9195 1.08053 23.1438 0.586388 22.1926C0 21.0637 0 19.5807 0 16.6146L0 8.38542Z" fill="#1265BF"/>
<path d="M5.61136 7.76376C6.80912 7.76376 7.7801 6.79278 7.7801 5.59501C7.7801 4.39725 6.80912 3.42627 5.61136 3.42627C4.41359 3.42627 3.44261 4.39725 3.44261 5.59501C3.44261 6.79278 4.41359 7.76376 5.61136 7.76376Z" fill="white"/>
<path d="M9.7663 9.36653H13.3606V11.0131C13.3606 11.0131 14.336 9.06237 16.9898 9.06237C19.3571 9.06237 21.3182 10.2286 21.3182 13.7832V21.2791H17.5935V14.6915C17.5935 12.5946 16.474 12.364 15.6209 12.364C13.8505 12.364 13.5474 13.8911 13.5474 14.9651L13.5474 21.2791H9.7663V9.36653Z" fill="white"/>
<path d="M3.72081 9.36653H7.50191L7.50191 21.2791H3.72081L3.72081 9.36653Z" fill="white"/>
</svg>
